<?xml version="1.0" standalone="no"?>
<!DOCTYPE svg PUBLIC "-//W3C//DTD SVG 1.1//EN" "http://www.w3.org/Graphics/SVG/1.1/DTD/svg11.dtd" >
<svg xmlns="http://www.w3.org/2000/svg">
<metadata>Generated by IcoMoon</metadata>
<defs>
<font id="icoWx" horiz-adv-x="1024">
<font-face units-per-em="1024" ascent="960" descent="-64" />
<missing-glyph horiz-adv-x="1024" />
<glyph unicode="&#x20;" horiz-adv-x="512" d="" />
<glyph unicode="&#xe900;" glyph-name="search" d="M1005.568 46.118l-232.842 238.338c-2.278 2.342-5.188 3.354-7.722 5.314 48.798 68.73 77.722 152.522 77.722 243.274 0 232.578-188.604 421.238-421.256 421.238-232.648 0-421.252-188.66-421.252-421.238 0-232.644 188.604-421.236 421.252-421.236 96.202 0 184.554 32.532 255.438 86.828 1.264-1.516 1.772-3.356 3.1-4.744l232.838-238.4c12.658-12.976 29.498-19.492 46.332-19.492 16.326 0 32.718 6.138 45.312 18.478 25.574 24.936 26.078 66.004 1.078 91.64v0zM65.028 533.044c0 196.502 159.934 356.43 356.444 356.43 196.58 0 356.444-159.928 356.444-356.43 0-196.57-159.866-356.432-356.444-356.432-196.51 0.004-356.444 159.862-356.444 356.432v0z" />
<glyph unicode="&#xe901;" glyph-name="chat" d="M427.626 896.13v0c236.162 0 427.626-154.946 427.626-346.068s-191.462-346.060-427.626-346.060c-22.69 0-44.926 1.456-66.684 4.194-91.852-91.478-197.93-107.898-303.93-110.304v0c57.242 27.944 103.348 101.208 103.348 159.342 0 8.116-0.626 16.078-1.796 23.86-96.704 63.428-158.564 160.36-158.564 268.944 0 191.124 191.464 346.058 427.626 346.058v0.034zM887.32 120.442c0-49.826 32.356-112.626 81.96-136.574v0c-91.878 2.046-176.208 16.134-255.802 94.534-18.844-2.362-38.114-3.594-57.786-3.594-85.042 0-163.404 22.95-225.93 61.484 128.878 0.46 250.564 41.736 342.834 116.424 46.51 37.632 83.218 81.822 109.052 131.284 27.396 52.47 41.308 108.308 41.308 166.064 0 9.296-0.4 18.56-1.12 27.77 64.664-53.392 104.46-126.174 104.46-206.398 0-93.086-53.598-176.164-137.414-230.516-1.020-6.682-1.562-13.524-1.562-20.478v0z" />
<glyph unicode="&#xe902;" glyph-name="emoji" d="M1024 444.786c0-280.996-227.792-508.786-508.79-508.786-280.996 0-508.788 227.79-508.788 508.786 0 280.998 227.792 508.79 508.79 508.79 280.996-0.002 508.788-227.794 508.788-508.79v0zM515.21 880.892c-240.854 0-436.104-195.252-436.104-436.106 0-240.852 195.252-436.106 436.104-436.106 240.856 0 436.104 195.254 436.104 436.106 0 240.856-195.248 436.106-436.104 436.106v0zM304.984 620.884c0.068 17.988 5.404 35.826 14.5 48.488 9.092 12.666 21.834 20.006 34.63 19.952 12.796-0.050 25.5-7.494 34.528-20.232 9.026-12.732 14.282-30.612 14.282-48.598 0-17.984-5.256-35.858-14.282-48.6-9.030-12.738-21.726-20.18-34.528-20.232-12.796-0.046-25.542 7.292-34.63 19.956-9.094 12.664-14.43 30.5-14.5 48.486v0.78zM625.176 620.884c0.070 17.988 5.404 35.826 14.496 48.488 9.094 12.666 21.834 20.006 34.626 19.952 12.802-0.050 25.506-7.494 34.534-20.232 9.040-12.732 14.28-30.612 14.28-48.598 0-17.984-5.246-35.858-14.28-48.6-9.032-12.738-21.73-20.18-34.534-20.232-12.792-0.046-25.534 7.292-34.626 19.956s-14.426 30.5-14.496 48.486v0.78zM287.576 399.144c15.054-112.292 111.226-198.894 227.636-198.894 116.414 0 212.584 86.602 227.636 198.894-61.846-30.524-141.158-48.86-227.636-48.86-86.488 0.002-165.796 18.338-227.636 48.86v0 0 0 0z" />
<glyph unicode="&#xe903;" glyph-name="exit" d="M1016.25 464.492l-210.772 210.762c-10.328 10.332-27.082 10.332-37.418 0l-42.606-42.6c-10.328-10.332-10.328-27.088 0-37.416l92.974-92.97h-423.786c-14.608 0-26.452-11.844-26.452-26.452v-60.256c0-14.614 11.844-26.456 26.452-26.456h423.582l-92.974-92.972c-10.33-10.328-10.33-27.086 0-37.414l42.608-42.608c10.334-10.328 27.092-10.328 37.42 0l168.364 168.36c0 0.006 0.008 0.006 0.008 0.006l42.61 42.608c10.322 10.326 10.322 27.078-0.010 37.408v0zM653.14 955.368h-569.902c-43.832 0-79.37-35.538-79.37-79.368v-860.63c0-43.838 35.538-79.37 79.37-79.37h569.902c43.832 0 79.372 35.532 79.372 79.37v111.668c0 14.608-11.844 26.458-26.46 26.458h-57.344c-14.61 0-26.46-11.852-26.46-26.458v-42.48c-0.29-21.664-17.938-39.14-39.67-39.14h-429.876c-21.914 0-39.68 17.768-39.68 39.688v722.082c0 21.914 17.76 39.684 39.68 39.684h429.876c21.742 0 39.38-17.476 39.67-39.144v-43.728c0-14.614 11.852-26.458 26.46-26.458h57.344c14.618 0 26.46 11.844 26.46 26.458v112c0 43.83-35.54 79.368-79.372 79.368v0z" />
<glyph unicode="&#xe904;" glyph-name="lianxiren" d="M774.656 220.77l-186.648 72.734c0 0-35.582 13.818-49.408 27.41-8.886 8.734-8.252 29.344-0.384 55.674 7.864 26.326 103.538 133.306 103.538 230.484 0 150.104-98.664 271.792-220.368 271.792-121.708 0-220.37-121.688-220.37-271.792 0-93.078 85.254-204.038 95.784-224.208 10.53-20.174 7.966-50.9-0.342-60.218-12.482-13.996-58.092-28.014-58.092-28.014l-168.26-74.99c-39.314-14.118-70.106-51.192-70.106-93.024v-19.836c0-45.646 37.074-73.58 82.642-73.58h679.48c45.566 0 82.64 27.934 82.64 73.58v19.836c0 41.834-30.796 80.038-70.106 94.152v0zM742.366 534.874c-19.416 0-35.174 9.864-35.174 30.694 0 20.826 15.758 30.688 35.174 30.688h247.142c19.41 0 34.036-9.862 34.036-30.688 0-20.828-16.886-30.694-36.296-30.694h-244.882zM794.77 394.248c-19.414 0-35.174 9.864-35.174 30.69 0 20.824 15.76 30.69 35.174 30.69h195.21c19.41 0 32.906-9.866 32.906-30.69 0-20.826-14.626-30.69-34.038-30.69h-194.078zM859.688 261.784c-19.418 0-35.172 9.86-35.172 30.688s15.754 30.692 35.172 30.692h130.862c19.41 0 34.014-9.864 34.014-30.692s-15.732-30.688-35.142-30.688h-129.734z" />
<glyph unicode="&#xe905;" glyph-name="setting" d="M973.76 553.068h-90.148c-8.516 17.736-20.488 54.484-35.982 80.608l63.708 59.672c19.972 19.528 20.040 50.068 0 69.404l-72.606 69.788c-20.042 19.336-52.628 19.144-72.734-0.192l-60.054-61.592c-27.21 14.854-65.306 26.444-83.552 34.636v86.944c0 27.468-30.094 49.62-58.52 49.62h-102.696c-28.298 0-58.456-22.152-58.456-49.62v-87.010c-18.312-8.196-56.342-19.848-83.424-34.702l-61.912 61.464c-20.104 19.4-51.734 19.4-71.772 0l-72.22-70.106c-20.040-19.402-19.912-50.836 0.256-70.3l63.77-58.006c-15.43-26.186-27.402-62.872-35.918-80.608h-90.086c-28.43 0-51.414-29.068-51.414-56.47v-99.244c0-27.402 22.984-56.466 51.414-56.466h90.082c8.516-17.608 20.552-54.358 35.982-80.604l-63.64-59.74c-20.040-19.4-20.040-49.876 0-69.274l72.668-69.918c20.040-19.268 52.564-19.208 72.668 0.45l60.12 61.466c27.082-14.792 65.178-26.382 83.49-34.64v-86.948c0-27.398 30.092-49.682 58.456-49.682h102.76c28.428 0 58.518 22.346 58.518 49.682v86.948c18.248 8.258 56.342 19.912 83.616 34.768l61.72-61.462c20.106-19.528 51.794-19.528 71.772 0l72.286 70.23c20.040 19.276 19.912 50.708-0.384 70.174l-63.638 58.008c15.366 26.186 27.34 62.87 35.854 80.542h90.146c28.366 0 51.414 29.13 51.414 56.466v99.244c-0.134 27.402-23.182 56.47-51.544 56.47v0zM512.584 223.788c-127.666 0-231.194 99.882-231.194 223.128 0 123.376 103.528 223.318 231.194 223.318s231.258-99.942 231.258-223.318c0.002-123.246-103.59-223.128-231.258-223.128v0z" />
<glyph unicode="&#xe906;" glyph-name="pass" d="M768.922 537.272h-396.861c6.82 57.508-42.68 291.308 140.145 297.001 173.834 6.595 146.78-213.34 146.78-213.34l85.135-0.573c0 0 24.74 294.4-231.916 295.834-280.105-14.213-214.385-333.373-222.925-378.921 1.987 0 4.567 0 7.291 0-55.89 0-101.212-45.343-101.212-101.212v-337.388c0-55.89 45.343-101.212 101.212-101.212h472.351c55.89 0 101.212 45.343 101.212 101.212v337.388c0 55.869-45.343 101.212-101.212 101.212zM566.477 242.975v-76.841c0-18.575-15.155-33.731-33.731-33.731s-33.731 15.155-33.731 33.731v76.841c-20.091 11.694-33.731 33.219-33.731 58.122 0 37.274 30.208 67.482 67.482 67.482s67.482-30.208 67.482-67.482c-0.020-24.904-13.66-46.428-33.772-58.122z" />
<glyph unicode="&#xe907;" glyph-name="user" d="M502.528 895.36c125.584 0 227.392-100.128 227.392-223.664 0-123.52-101.808-223.68-227.392-223.68s-227.392 100.16-227.392 223.68c-0.016 123.536 101.808 223.664 227.392 223.664zM502.528 895.36c125.584 0 227.392-100.128 227.392-223.664 0-123.52-101.808-223.68-227.392-223.68s-227.392 100.16-227.392 223.68c-0.016 123.536 101.808 223.664 227.392 223.664zM417.248 373.44h189.52c162.224 0 293.728-129.344 293.728-288.912v-18.624c0-62.88-131.52-65.28-293.728-65.28h-189.52c-162.224 0-293.744 0.064-293.744 65.28v18.624c0 159.568 131.52 288.912 293.744 288.912z" />
<glyph unicode="&#xe908;" glyph-name="man" d="M985.372 960h-291.96c-20.148 0-36.496-16.35-36.496-36.494 0-20.146 16.348-36.496 36.496-36.496h206.124l-240.068-240.066c-69.78 58.612-159.704 94.084-258.022 94.084-221.744 0.002-401.446-179.7-401.446-401.446 0-221.672 179.702-401.448 401.448-401.448 221.67 0 401.448 179.776 401.448 401.448 0 97.15-34.526 186.198-91.968 255.612l237.948 237.948v-201.6c0-20.144 16.352-36.496 36.496-36.496s36.494 16.352 36.494 36.496v291.964c0 20.144-16.35 36.494-36.494 36.494v0zM401.448 11.124c-181.088 0-328.456 147.368-328.456 328.458s147.366 328.458 328.456 328.458c181.088 0 328.458-147.368 328.458-328.458s-147.37-328.458-328.458-328.458v0z" />
<glyph unicode="&#xe909;" glyph-name="woman" d="M930.732 554.194c0 219.842-178.88 398.72-398.714 398.72-219.84 0-398.72-178.876-398.72-398.72 0-207.726 159.742-378.666 362.836-396.902-0.040-0.648-0.366-1.156-0.366-1.808v-72.496h-144.984c-20.010 0-36.25-16.204-36.25-36.246s16.24-36.25 36.25-36.25h144.986v-36.246c0-20.042 16.238-36.246 36.248-36.246 20.006 0 36.244 16.204 36.244 36.246v36.246h144.992c20.044 0 36.242 16.204 36.242 36.25 0 20.042-16.198 36.246-36.242 36.246h-144.992v72.496c0 0.652-0.328 1.16-0.36 1.808 203.088 18.236 362.83 189.176 362.83 396.902v0zM532.018 227.972c-179.858 0-326.224 146.336-326.224 326.222 0 179.858 146.368 326.228 326.224 326.228 179.892 0 326.218-146.37 326.218-326.228 0-179.886-146.326-326.222-326.218-326.222v0zM532.018 227.972v0z" />
<glyph unicode="&#xe90a;" glyph-name="yuyin" d="M264 651.648c-19.408 15.664-49.408 14.352-67.008-2.96-17.584-17.296-16.096-44.032 3.312-59.744 44.448-35.92 69.952-87.328 69.952-141.040 0-53.648-25.568-105.088-70.192-141.136-10.336-8.352-15.568-19.824-15.568-31.344 0-10.128 4.048-20.304 12.304-28.4 17.6-17.296 47.6-18.608 67.008-2.912 64.384 52.064 101.312 126.336 101.312 203.792 0 77.552-36.848 151.808-101.12 203.744zM443.84 791.008c-18.48 16.56-48.512 16.64-67.088 0.16-18.576-16.432-18.624-43.248-0.192-59.808 84.384-75.664 130.88-176.304 130.88-283.456 0-106.96-46.56-207.584-131.104-283.376-9.2-8.24-13.808-19.040-13.808-29.808 0-10.864 4.656-21.728 13.984-29.984 18.576-16.48 48.592-16.4 67.088 0.16 102.352 91.728 158.72 213.552 158.72 343.008 0 129.648-56.304 251.504-158.48 343.104zM622.112 930.992c-18.128 16.848-48.16 17.408-67.072 1.232-18.928-16.176-19.52-42.944-1.392-59.792 123.152-114.464 190.976-265.232 190.976-424.512 0-158.976-67.92-309.68-191.216-424.368-8.8-8.192-13.184-18.72-13.184-29.264 0-11.104 4.88-22.224 14.608-30.544 18.896-16.144 48.944-15.584 67.072 1.28 140.304 130.512 217.568 302 217.568 482.88 0.032 181.232-77.184 352.784-217.36 483.088z" />
<glyph unicode="&#xe90b;" glyph-name="wenjianjia" d="M869.76 56.384h-715.52c-48.448 0-87.84 39.392-87.84 87.84v624.992c0 38.816 31.584 70.4 70.4 70.4h227.52c42.88 0 77.76-34.88 77.76-77.728v-1.344c0-18.56 14.336-52 22.464-56.576l405.216 0.576c48.448 0 87.84-39.392 87.84-87.84v-472.48c0-48.416-39.424-87.84-87.84-87.84zM136.8 791.616c-12.352 0-22.4-10.048-22.4-22.4v-624.96c0-21.984 17.888-39.84 39.84-39.84h715.52c21.984 0 39.84 17.888 39.84 39.84v472.448c0 21.984-17.888 39.84-39.84 39.84h-408.032c-47.296 0-67.616 78.944-67.616 104v1.344c0 16.384-13.344 29.728-29.76 29.728h-227.552zM925.344 521.28h-711.040c-13.248 0-24 10.752-24 24s10.752 24 24 24h711.040c13.248 0 24-10.752 24-24s-10.752-24-24-24z" />
<glyph unicode="&#xe90c;" glyph-name="revise" d="M862.18 695.326l-165.428 165.424 82.75 82.712c27.418 27.382 71.812 27.382 99.232 0l66.162-66.164c27.416-27.416 27.416-71.88 0-99.296l-82.716-82.676zM381.59 214.752l-165.432 165.426 449.73 446.196 165.43-165.424-449.728-446.198zM83.258 79.088l100.652 268.842 164.044-164.074-264.696-104.768zM826.168 22.552c23.158 0 41.908-18.752 41.908-41.91 0-23.118-18.75-41.87-41.908-41.87h-740.956c-23.122 0-41.872 18.752-41.872 41.87 0 23.158 18.75 41.91 41.872 41.91h740.956z" />
<glyph unicode="&#xe90d;" glyph-name="message" horiz-adv-x="2356" d="M1439.479 563.674c-15.17 34.133-35.84 63.716-61.819 88.936s-56.32 45.132-90.833 59.733c-34.513 14.601-71.49 21.618-110.744 21.239-39.443-0.379-76.231-8.154-110.554-23.135s-64.284-35.271-89.884-61.25c-25.6-25.979-45.701-56.13-60.302-90.643s-21.618-71.301-21.239-110.554c0.759-36.978 8.154-71.49 21.807-103.538 13.843-32.047 31.479-59.923 53.096-84.006 7.206-7.964 11.378-16.308 12.705-25.031 1.327-8.533-2.276-15.17-10.809-19.911-15.17-8.913-34.892-15.17-58.975-18.963-3.793-0.759 5.12-4.741 26.738-11.757s54.803-12.705 99.745-17.446c20.29-1.707 38.495-2.655 54.613-3.224 16.119-0.379 30.72-0.379 44.184 0 13.274 0.379 25.41 1.138 36.219 1.896s21.049 1.896 30.72 3.224c36.409 3.793 70.542 13.843 102.21 29.961s59.164 36.978 82.489 62.199c23.324 25.221 41.529 54.234 54.993 86.85 13.274 32.616 19.721 67.698 19.342 105.055-0.569 39.633-8.533 76.231-23.704 110.364zM1022.293 403.058c-25.41 0-45.89 20.48-45.89 45.89s20.48 45.89 45.89 45.89c25.41 0 45.89-20.48 45.89-45.89 0.19-25.221-20.48-45.89-45.89-45.89zM1178.548 403.058c-25.41 0-45.89 20.48-45.89 45.89s20.48 45.89 45.89 45.89c25.41 0 45.89-20.48 45.89-45.89 0-25.221-20.48-45.89-45.89-45.89zM1334.803 403.058c-25.41 0-45.89 20.48-45.89 45.89s20.48 45.89 45.89 45.89c25.41 0 45.89-20.48 45.89-45.89 0-25.221-20.48-45.89-45.89-45.89z" />
<glyph unicode="&#xe90e;" glyph-name="under" d="M709.446 546.746l-197.446-197.469-197.469 197.469z" />
<glyph unicode="&#xe90f;" glyph-name="group" d="M366.561 514.345c-154.747 0-234.66-104.458-249.119-230.502-14.623-125.942-54.374-230.39 249.119-230.39 303.616 0 263.741 104.448 249.119 230.39-14.397 126.044-94.382 230.502-249.119 230.502v0zM904.888 312.699c-12.974 110.285-83.988 201.646-221.573 201.646-40.458 0-74.445-8.643-103.537-22.579 50.483-48.456 83.538-116.961 93.164-201.359l3.584-28.109c6.502-48.978 13.363-102.902-6.984-150.886 4.782-0.123 8.878-0.348 13.783-0.348 269.896 0 234.527 91.433 221.563 201.636v0zM366.5 571.955c79.575 0 144.097 64.471 144.097 144.026 0 79.503-64.532 144.026-144.097 144.026-79.555 0-143.964-64.522-143.964-144.026 0-79.555 64.41-144.026 143.964-144.026v0zM683.366 571.955c63.662 0 115.282 51.62 115.282 115.22 0 63.549-51.62 115.22-115.282 115.22-63.611 0-115.169-51.671-115.169-115.22 0-63.601 51.558-115.22 115.169-115.22v0z" />
<glyph unicode="&#xe910;" glyph-name="message_logg" d="M645.821 594.493c17.243-17.232 45.179-17.263 62.411 0 17.273 17.243 17.222 45.169 0 62.411-17.232 17.243-45.169 17.243-62.411 0-17.243-17.273-17.243-45.199 0-62.411zM807.667 594.493c17.243-17.232 45.179-17.263 62.422 0 17.273 17.243 17.212 45.169 0 62.411-17.243 17.243-45.179 17.243-62.422 0-17.243-17.273-17.243-45.199 0-62.411zM956.589 682.252v-113.137c0-50.019-49.139-90.552-109.831-90.552h-155.010l-176.561-117.711c-60.703 0 58.85 117.711 29.42 176.561v144.839c0 50.029 49.139 90.583 109.831 90.583h192.32c60.692 0 109.831-40.554 109.831-90.583zM759.786 402.276c25.081-43.45 35.232-87.677 29.338-127.883-5.976-40.769-28.049-74.057-62.186-93.766l-217.514-125.601c-19.596-11.297-40.574-16.721-61.726-16.721-54.399 0-110.036 35.713-146.65 99.128l-207.015 358.546c-25.091 43.47-35.232 87.687-29.359 127.903 5.966 40.748 28.049 74.057 62.197 93.755l217.514 125.59c69.81 40.308 157.487 5.69 208.376-82.407l-50.981-29.42c-34.342 59.495-86.961 84.525-127.964 60.846l-217.514-125.59c-18.501-10.663-30.055-28.407-33.39-51.298-3.94-26.974 3.704-58.073 22.103-89.949l207.015-358.556c34.342-59.526 86.991-84.494 127.975-60.846l217.504 125.59c18.481 10.663 30.034 28.407 33.401 51.298 3.929 26.985-3.715 58.093-22.103 89.949l50.981 29.43zM659.042 350.609c8.125-14.081 8.995-28.775 1.985-32.848l-229.384-132.416c-7.040-4.052-19.31 4.052-27.445 18.133-8.105 14.050-8.995 28.775-1.985 32.828l229.354 132.436c7.040 4.073 19.371-4.073 27.476-18.133zM472.503 471.441c8.135-14.081 11.236-27.476 6.989-29.952l-139.006-80.248c-4.257-2.435-14.285 6.958-22.41 21.039-8.105 14.050-11.236 27.486-7.010 29.932l138.965 80.258c4.288 2.466 14.367-6.979 22.472-21.029zM453.050 674.311c8.135-14.091 8.995-28.786 1.985-32.848l-229.384-132.426c-7.040-4.052-19.31 4.052-27.445 18.133-8.105 14.060-8.985 28.786-1.975 32.838l229.354 132.436c7.030 4.063 19.361-4.083 27.466-18.133z" />
<glyph unicode="&#xe911;" glyph-name="icon-diyiye" d="M216.154 472.816c1.466 1.466 3.115 2.773 4.737 3.926l464.429 464.269c14.395 14.395 38.134 14.395 52.531 0 14.397-14.397 14.395-38.136 0-52.533l-442.491-442.335 442.493-442.495c14.395-14.397 14.395-38.136 0-52.531-14.395-14.399-38.134-14.397-52.531 0l-464.431 464.427c-1.649 1.151-3.273 2.458-4.737 3.926-7.358 7.354-10.965 17.015-10.809 26.671-0.16 9.66 3.43 19.317 10.809 26.675v0 0zM402.522 472.816c1.466 1.466 3.115 2.773 4.737 3.926l464.429 464.269c14.395 14.395 38.134 14.395 52.531 0 14.397-14.397 14.395-38.136 0-52.533l-442.491-442.335 442.493-442.495c14.395-14.397 14.395-38.136 0-52.531-14.395-14.399-38.134-14.397-52.531 0l-464.431 464.427c-1.649 1.151-3.273 2.458-4.737 3.926-7.358 7.354-10.965 17.015-10.809 26.671-0.16 9.66 3.43 19.317 10.809 26.675v0 0z" />
<glyph unicode="&#xe912;" glyph-name="icon-houyiye" d="M770.603 472.816c-1.466 1.466-3.115 2.773-4.737 3.926l-464.429 464.269c-14.395 14.395-38.134 14.395-52.531 0-14.397-14.397-14.395-38.136 0-52.533l442.493-442.335-442.495-442.495c-14.395-14.397-14.395-38.136 0-52.531 14.395-14.399 38.134-14.397 52.531 0l464.427 464.427c1.649 1.151 3.273 2.458 4.737 3.926 7.358 7.354 10.965 17.015 10.809 26.671 0.164 9.66-3.428 19.317-10.805 26.675v0 0z" />
<glyph unicode="&#xe913;" glyph-name="icon-guanbi" d="M907.663 921.397l-397.775-397.754-397.773 397.754c-21.43 21.432-56.181 21.432-77.609 0-21.432-21.432-21.432-56.177 0-77.605l397.775-397.756-397.775-397.761c-21.432-21.43-21.432-56.177 0-77.605 21.432-21.434 56.181-21.434 77.609 0l397.775 397.756 397.773-397.754c21.43-21.434 56.179-21.434 77.611 0 21.43 21.432 21.43 56.177 0 77.605l-397.775 397.758 397.775 397.754c21.43 21.432 21.43 56.177 0 77.605-21.434 21.43-56.181 21.43-77.611 0.002v0z" />
<glyph unicode="&#xe914;" glyph-name="icon-qianyiye" d="M248.922 472.816c1.464 1.466 3.115 2.773 4.739 3.926l464.427 464.269c14.395 14.395 38.134 14.395 52.531 0 14.397-14.397 14.395-38.136 0-52.533l-442.491-442.335 442.491-442.495c14.395-14.397 14.395-38.136 0-52.531-14.395-14.399-38.134-14.397-52.531 0l-464.427 464.427c-1.649 1.151-3.273 2.458-4.739 3.926-7.358 7.354-10.967 17.015-10.811 26.671-0.158 9.66 3.432 19.317 10.811 26.675v0 0z" />
<glyph unicode="&#xe915;" glyph-name="icon-rili" d="M924.672-59.871h-825.377c-52.537 0-95.199 42.654-95.199 95.195v730.122c0 52.605 42.662 95.259 95.199 95.259h126.964v-63.486h-158.677v-793.604h888.801v793.541h-158.747v63.549h126.972c52.607 0 95.261-42.656 95.261-95.259v-730.059c0-52.605-42.654-95.259-95.197-95.259v0zM670.73 574.988h126.972v-95.199h-126.972v95.199zM797.702 162.296h-126.972v95.199h126.972v-95.199zM670.73 416.24h126.972v-95.195h-126.972v95.195zM718.328 701.96c-26.27 0-47.598 21.328-47.598 47.598v158.747c0 26.27 21.264 47.6 47.598 47.6s47.6-21.33 47.6-47.6v-158.747c0-26.272-21.328-47.598-47.6-47.598v0zM448.498 574.988h126.974v-95.199h-126.974v95.199zM575.47 162.296h-126.974v95.199h126.974v-95.199zM448.498 416.24h126.974v-95.195h-126.974v95.195zM385.012 860.705h253.944v-63.486h-253.944v63.486zM226.259 257.559h126.978v-95.197h-126.978v95.197zM226.259 416.24h126.978v-95.195h-126.978v95.195zM226.259 574.988h126.978v-95.199h-126.978v95.199zM305.639 701.96c-26.272 0-47.598 21.328-47.598 47.598v158.747c0 26.27 21.326 47.6 47.598 47.6 26.255 0 47.6-21.33 47.6-47.6v-158.747c-0.002-26.272-21.266-47.598-47.6-47.598v0zM305.639 701.96v0z" />
<glyph unicode="&#xe916;" glyph-name="icon-zuihouyiye" d="M924.203 472.816c-1.466 1.466-3.115 2.773-4.737 3.926l-464.429 464.269c-14.395 14.395-38.134 14.395-52.531 0-14.397-14.397-14.395-38.136 0-52.533l442.493-442.335-442.495-442.495c-14.395-14.397-14.395-38.136 0-52.531 14.395-14.399 38.134-14.397 52.531 0l464.427 464.427c1.649 1.151 3.273 2.458 4.737 3.926 7.358 7.354 10.965 17.015 10.809 26.671 0.164 9.66-3.428 19.317-10.805 26.675v0 0zM737.835 472.816c-1.466 1.466-3.115 2.773-4.737 3.926l-464.429 464.269c-14.395 14.395-38.134 14.395-52.531 0-14.397-14.397-14.395-38.136 0-52.533l442.493-442.335-442.495-442.495c-14.395-14.397-14.395-38.136 0-52.531 14.395-14.399 38.134-14.397 52.531 0l464.427 464.427c1.649 1.151 3.273 2.458 4.737 3.926 7.358 7.354 10.965 17.015 10.809 26.671 0.164 9.66-3.428 19.317-10.805 26.675v0 0z" />
<glyph unicode="&#xe917;" glyph-name="up" d="M483.006 706.9c-1.466-1.464-2.773-3.115-3.926-4.739l-464.269-464.427c-14.395-14.395-14.395-38.134 0-52.531 14.397-14.397 38.136-14.395 52.533 0l442.335 442.491 442.495-442.491c14.397-14.395 38.136-14.395 52.531 0 14.399 14.395 14.397 38.134 0 52.531l-464.427 464.427c-1.151 1.651-2.458 3.273-3.926 4.739-7.354 7.358-17.015 10.967-26.671 10.811-9.66 0.156-19.317-3.43-26.675-10.811v0 0z" />
<glyph unicode="&#xe918;" glyph-name="down" d="M483.006 185.219c-1.466 1.464-2.773 3.115-3.926 4.739l-464.269 464.427c-14.395 14.395-14.395 38.134 0 52.531 14.397 14.397 38.136 14.395 52.533 0l442.335-442.491 442.495 442.491c14.397 14.395 38.136 14.395 52.531 0 14.399-14.395 14.397-38.134 0-52.531l-464.427-464.425c-1.151-1.651-2.458-3.273-3.926-4.739-7.354-7.358-17.015-10.967-26.671-10.811-9.66-0.158-19.317 3.43-26.675 10.809v0 0z" />
<glyph unicode="&#xe919;" glyph-name="group_message" d="M1009.744 809.499h-839.16c-7.649 0-13.91-6.259-13.91-13.91v-31.877l19.894-19.896c10.043-10.037 20.396-19.667 31.042-28.883h732.676c7.651 0 13.908-6.259 13.908-13.91v-1.47c17.254 13.728 33.786 28.49 49.56 44.261l19.896 19.896v31.881c0.002 7.651-6.257 13.908-13.906 13.908zM161.819 729.061l-5.143 5.145v-19.276h19.763c-4.94 4.624-9.818 9.329-14.621 14.131zM954.196 673.18v-443.21h55.548c7.649 0 13.908 6.257 13.908 13.908v490.328l-5.143-5.145c-20.253-20.253-41.722-38.894-64.313-55.882zM252.432 295.854l110.995 110.995c-36.043 7.354-71.381 17.992-105.775 31.875-75.229 30.372-142.567 74.959-200.143 132.536l-5.145 5.145v-286.501c29.174 21.645 65.268 34.468 104.307 34.468 35.31 0.002 68.209-10.496 95.76-28.518zM485.853 394.553c-32.897 0-65.436 2.601-97.466 7.746l-119.028-119.026c38.328-32.207 62.736-80.47 62.736-134.322 0-27.521-6.38-53.58-17.723-76.782h591.059c3.508 0 6.711 1.325 9.167 3.488l-327.291 327.295c-33.315-5.583-67.191-8.399-101.454-8.399zM905.433 651.698h-839.158c-7.651 0-13.91-6.257-13.91-13.908v-31.879l19.894-19.894c55.583-55.583 120.584-98.628 193.198-127.939 70.115-28.303 144.263-42.656 220.393-42.656 76.124 0 150.278 14.352 220.391 42.656 72.618 29.313 137.617 72.36 193.198 127.939l19.898 19.896v31.879c0.002 7.649-6.255 13.906-13.906 13.906zM714.054 438.727c-33.174-13.39-67.226-23.757-101.939-31.076l307.227-307.229v475.984l-5.143-5.145c-57.575-57.577-124.914-102.164-200.145-132.534zM154.35 296.468c-82.422 0-149.465-67.047-149.465-149.469 0-82.403 67.054-149.465 149.465-149.465 82.422 0 149.471 67.047 149.473 149.465 0.002 82.401-67.047 149.469-149.473 149.469zM216.168 89.463c-3.33-3.318-7.692-4.989-12.057-4.989-4.362 0-8.727 1.669-12.059 4.989l-61.852 61.858 0.002-21.613c0-9.423-7.637-17.058-17.046-17.058-9.423 0-17.050 7.635-17.050 17.037l-0.008 62.74c-0.008 2.241 0.424 4.477 1.294 6.576 0.004 0.006 0.008 0.016 0.008 0.023 0.207 0.496 0.438 0.985 0.694 1.47 0.049 0.098 0.113 0.19 0.168 0.287 0.213 0.383 0.432 0.764 0.68 1.135 0.176 0.27 0.379 0.518 0.571 0.78 0.141 0.186 0.268 0.383 0.422 0.567 0.358 0.444 0.743 0.87 1.153 1.274 3.359 3.363 7.77 5.018 12.175 4.989h62.669c9.421 0 17.046-7.637 17.046-17.041 0-9.417-7.633-17.037-17.046-17.037h-21.635l61.866-61.864c6.656-6.658 6.656-17.467 0.002-24.123z" />
<glyph unicode="&#xe91a;" glyph-name="add_friends" d="M750.933 451.413c-119.467 0-215.040-95.573-215.040-215.040s95.573-215.040 215.040-215.040c119.467 0 215.040 95.573 215.040 215.040s-95.573 215.040-215.040 215.040zM870.4 205.653h-88.747v-88.747h-61.44v88.747h-88.747v61.44h88.747v88.747h61.44v-88.747h88.747v-61.44zM539.307 400.213c-6.827 13.653-6.827 30.72 3.413 58.027v0c54.613 54.613 88.747 143.36 88.747 232.107 0 136.533-81.92 204.8-187.733 204.8-102.4 0-184.32-71.68-184.32-204.8 0-88.747 34.133-177.493 88.747-232.107 20.48-54.613-17.067-75.093-23.893-78.507-109.227-40.96-235.52-112.64-235.52-184.32 0-20.48 0-6.827 0-27.307 0-95.573 184.32-116.053 354.987-116.053 37.547 0 75.093 0 112.64 3.413-44.373 47.787-71.68 112.64-71.68 184.32 0 58.027 20.48 116.053 54.613 160.427z" />
<glyph unicode="&#xe91b;" glyph-name="shangla2" d="M833.397 284.211l-323.496 323.533-323.533-323.533h647.029z" />
<glyph unicode="&#xe91c;" glyph-name="xiaoxitongzhi" d="M902.001 885.847c-5.294 3.533-10.588 3.533-15.892 1.766l-680.428-287.78-141.061 107.694c-5.294 3.533-12.36 5.299-17.654 1.766-5.299-1.766-8.827-7.060-8.827-14.126v-474.921c0-7.066 3.528-12.36 10.593-14.126s14.126-1.766 17.654 3.528l132.239 111.227 108.575-47.662c-21.187-77.686 8.827-201.272 128.881-250.706 24.719-10.588 49.434-15.892 75.919-15.892 79.452 0 152.376 40.627 189.455 113.009l184.653-90.061c5.299-1.761 10.593-1.761 15.892 1.772 5.299 3.528 7.066 7.060 7.066 12.36v829.798c0 5.294-3.533 10.588-7.066 12.355zM511.084 52.378c-18.524 0-37.048 3.087-54.026 10.803-84.905 33.956-111.145 125.036-97.249 183.69l293.294-104.965c-27.786-54.021-84.9-89.528-142.019-89.528zM849.618 127.002l-258.345 96.712-293.33 105.262-102.118 44.908c-1.403 0-2.806 1.403-4.209 1.403-2.811 0-7.020-1.403-9.825-2.806l-89.329-72.98v320l96.348-72.98c4.214-2.806 9.825-4.209 14.039-2.806l646.769 244.767v-661.478z" />
<glyph unicode="&#xe921;" glyph-name="add" d="M760.934 398.208h-199.148v-199.148h-99.574v199.148h-199.153v99.584h199.148v199.148h99.579v-199.148h199.148v-99.584zM512 945.874c-273.828 0-497.874-224.046-497.874-497.874s224.046-497.869 497.874-497.869 497.869 224.041 497.869 497.869-224.041 497.874-497.869 497.874z" />
<glyph unicode="&#xe922;" glyph-name="comment" d="M257.688 596.081c-35.26 0-63.846-29.647-63.846-66.232s28.586-66.234 63.846-66.234c35.26 0 63.848 29.649 63.848 66.234 0 36.583-28.588 66.232-63.848 66.232v0zM513.081 596.081c-35.26 0-63.848-29.647-63.848-66.232s28.588-66.234 63.848-66.234 63.848 29.649 63.848 66.234c0 36.583-28.588 66.232-63.848 66.232v0zM768.475 596.081c-35.258 0-63.85-29.647-63.85-66.232s28.592-66.234 63.85-66.234c35.262 0 63.848 29.649 63.848 66.234 0 36.583-28.588 66.232-63.848 66.232v0zM896.172 927.232h-766.181c-70.521 0-127.697-59.312-127.697-132.467v-496.728c0-73.155 58.454-140.587 130.597-140.587h194.601c33.919-36.133 174.305-181.477 174.305-181.477 6.234-6.484 16.339-6.484 22.571 0 0 0 102.785 116.535 169.757 181.477h199.15c72.143 0 130.599 67.434 130.599 140.587v496.728c-0.002 73.155-57.178 132.467-127.701 132.467v0zM960.020 298.037c0-36.573-30.677-74.949-66.748-74.949h-195.846c-23.726 0-45.052-24.394-45.052-24.394l-137.515-142.635-137.486 142.635c0 0-26.19 24.394-48.636 24.394h-195.848c-36.071 0-66.746 38.373-66.746 74.949v496.728c0 36.583 28.588 66.234 63.848 66.234h766.181c35.26 0 63.848-29.651 63.848-66.234v-496.728z" />
<glyph unicode="&#xe923;" glyph-name="complete" d="M511.14 953.083c-279.199 0-505.539-225.961-505.539-504.694 0-278.738 226.34-504.694 505.539-504.694 279.204 0 505.539 225.956 505.539 504.694s-226.335 504.694-505.539 504.694zM789.105 569.364l-325.432-332.483c-14.971-15.299-39.255-15.299-54.226 0l-176.271 180.101c-14.981 15.299-14.981 40.105 0 55.409 14.971 15.304 39.255 15.304 54.226 0l149.161-152.392 298.307 304.778c14.986 15.299 39.265 15.299 54.241 0 14.976-15.304 14.976-40.115-0.005-55.414z" />
<glyph unicode="&#xe924;" glyph-name="delete" d="M509.998 960c-281.6 0-509.998-228.352-509.998-509.998 0-281.667 228.367-509.998 509.998-509.998 281.667 0 509.998 228.291 509.998 509.998 0.005 281.6-228.332 509.998-509.998 509.998zM719.089 308.465c8.684-8.643 14.029-20.562 14.029-33.777 0-26.435-21.376-47.811-47.811-47.811-13.123 0-25.134 5.345-33.777 14.029l-141.537 141.46-141.44-141.507c-8.704-8.689-20.654-14.034-33.874-14.034-26.353 0-47.775 21.381-47.775 47.826 0 13.215 5.34 25.103 13.983 33.746l141.522 141.599-141.481 141.491c-8.653 8.673-13.983 20.623-13.983 33.823 0 26.399 21.407 47.805 47.805 47.805 13.169 0 25.119-5.33 33.792-13.983l141.44-141.522 141.537 141.491c8.643 8.643 20.654 13.983 33.777 13.983 26.383 0 47.811-21.376 47.811-47.805 0-13.215-5.345-25.17-14.034-33.823l-141.44-141.44 141.455-141.553z" />
<glyph unicode="&#xe925;" glyph-name="folder" d="M661.238 865.28l-142.991-143.002h-505.754v-699.93h1011.507v842.931h-362.762zM272.532 863.775h-260.040v-63.442h323.471l-63.432 63.442z" />
<glyph unicode="&#xe926;" glyph-name="like" d="M736.569 817.41c105.929 0 192.020-82.647 192.020-184.277 0-271.483-301.93-472.861-415.961-539.122-114.164 66.261-416.092 267.639-416.092 539.122 0 101.628 86.139 184.277 192.066 184.277 58.202 0 112.597-24.982 149.307-68.59 18.219-21.668 49.293-34.294 74.719-34.294 29.012 0 56.412 12.628 74.588 34.294 36.712 43.608 91.197 68.59 149.352 68.59v0zM736.569 909.548c-90.526 0-171.203-40.202-223.943-102.793-52.916 62.589-133.505 102.793-224.029 102.793-159.113 0-288.049-123.744-288.049-276.412 0-368.636 448.014-614.425 512.080-645.134 63.977 30.71 511.992 276.5 511.992 645.134 0.002 152.666-128.938 276.412-288.051 276.412z" />
<glyph unicode="&#xe927;" glyph-name="mini-refresh" d="M952.142 526.277l-73.509-0.917c-2.552 200.938-169.194 361.788-372.247 359.23-203.083-2.552-365.604-167.523-363.046-368.462 2.522-200.943 169.194-361.824 372.242-359.266l0.922-72.76c-243.656-3.067-443.642 189.97-446.673 431.14-3.067 241.134 191.982 439.108 435.638 442.174 243.615 3.031 443.642-189.97 446.673-431.14v0 0zM952.142 526.277c0.275-20.098-16.012-36.619-36.309-36.889-20.271-0.234-36.961 15.875-37.2 35.972-0.275 20.062 16.012 36.584 36.273 36.823 20.307 0.27 36.996-15.808 37.236-35.906v0 0zM736.623 123.239l-218.28-184.692-4.6 363.866 222.88-179.175z" />
<glyph unicode="&#xe928;" glyph-name="pengyouquan" d="M251.607 469.58c8.11 95.273 67.469 175.704 150.467 213.903 29.25 63.435 83.907 141.517 176.695 237.695 10.097 10.398 19.542 20.167 28.645 29.551-31.361 6.015-63.713 9.271-96.803 9.271-156.981 0-297.398-70.64-391.44-181.807 11.993-33.26 20.576-57.569 20.576-57.569s40.034-148.742 111.86-251.044v0zM357.988 237.064c-55.648 40.462-94.517 102.32-104.612 173.629-47.624 54.829-96.416 147.296-141.064 297.29-4.7 15.899-9.101 30.759-13.285 44.972-63.5-85.348-101.075-191.101-101.075-305.615 0-64.406 11.991-126.030 33.692-182.841 34.597-4.788 59.574-8.434 59.574-8.434s144.257-32.657 266.77-19.001v0zM448.104 699.57c20.060 4.962 40.854 7.875 62.507 7.875 49.308 0 95.252-13.978 134.509-37.769 70.273 11.67 169.449 8.219 309.819-21.481 10.398-2.159 20.361-4.293 30.024-6.363-60.826 148.247-189.075 261.702-346.62 302.121-20.488-23.79-35.029-40.444-35.029-40.444s-99.172-97.427-155.21-203.938v0zM760.73 376.529c-15.962-56.404-50.475-104.892-96.502-138.689-24.846-69.37-87.011-158.839-211.98-273.525-8.671-7.936-16.91-15.487-24.934-22.798 27.134-4.442 54.956-6.836 83.298-6.836 121.264 0 232.602 42.189 320.389 112.572-2.2 17.988-3.494 29.356-3.494 29.356s-6.857 182.97-66.777 299.919v0zM613.196 208.331c-31.533-13.543-66.175-21.094-102.584-21.094-37.36 0-72.819 8.024-105.001 22.237-70.359-13.781-171.346-12.229-315.947 16.394-16.134 3.213-31.232 6.212-45.599 9.124 65.098-142.918 193.866-250.571 350.157-286.874 20.361 20.924 34.554 35.355 34.554 35.355s126.702 110.088 184.42 224.858v0zM684.591 640.299c52.713-47.624 86.147-116.279 86.147-192.961 0-5.759-0.52-11.387-0.864-17.060 41.671-61.45 75.577-167.809 87.183-347.419 0.301-4.313 0.559-8.368 0.778-12.53 101.718 93.653 165.435 227.881 165.435 377.008 0 57.354-9.578 112.421-26.919 163.908-25.971 4.010-43.442 6.793-43.442 6.793s-145.287 34.836-268.319 22.26v0z" />
<glyph unicode="&#xe929;" glyph-name="shangla" d="M1017.706 699.904l-507.798-507.853-507.851 507.853h1015.648z" />
<glyph unicode="&#xe930;" glyph-name="xingbiaohaoyou" d="M212.434 588.554c52.465 0 104.924 0.205 157.389-0.205 8.417-0.067 11.812 2.565 14.382 10.547 32.036 99.354 64.415 198.605 96.87 297.82 7.9 24.141 31.048 34.606 53.514 24.863 12.861-5.576 18.857-16.241 22.963-28.902 31.667-97.669 63.657-195.231 95.032-292.992 2.888-8.991 6.845-11.377 15.867-11.331 101.816 0.527 203.638 0.645 305.459 0.763 6.861 0.010 13.875-0.087 20.557-1.454 14.935-3.062 24.003-12.831 27.965-27.336 3.896-14.244 0.563-27.008-10.286-36.803-8.417-7.593-17.94-13.988-27.187-20.623-78.188-56.131-156.375-112.282-234.783-168.11-6.487-4.618-7.649-8.484-5.197-15.918 32.573-98.452 64.819-197.012 97.121-295.567 6.922-21.125 3.046-36.050-12.001-47.012-15.304-11.146-32.2-10.496-49.71 2.15-84.449 61.030-168.94 122.004-253.153 183.352-6.922 5.043-11.054 4.634-17.674-0.174-84.557-61.466-169.585-122.291-253.937-184.033-28.242-20.664-58.22-2.35-62.633 20.014-1.638 8.289-0.614 17.992 2.038 26.122 31.831 97.613 64 195.108 96.717 292.429 3.43 10.194 1.29 14.735-7.071 20.664-84.424 59.873-168.515 120.223-252.657 180.49-16.85 12.073-22.4 27.305-16.696 44.759 5.601 17.152 19.722 27.013 39.721 27.064 52.46 0.128 104.924 0.041 157.389 0.041 0-0.21 0-0.41 0-0.62z" />
<glyph unicode="&#xe958;" glyph-name="截屏(1)" d="M374.976 459.328l117.376 115.392-348.928 321.28c-77.12-236.736 231.552-436.672 231.552-436.672zM750.464 389.184h-113.536c-24.576 10.56-8.704 52.096-8.704 52.096s150.72 118.080 205.12 195.2c54.336 77.184 45.632 245.312 45.632 245.312l-408.32-390.592c11.712 8 25.984 12.736 41.344 12.736 40.512 0 73.344-32.832 73.344-73.408 0-40.512-32.832-73.408-73.344-73.408-40.576 0-73.408 32.896-73.408 73.344 0 16.704 5.632 32 14.912 44.288l-89.472-85.568h-90.56c-107.456 0-194.56-87.040-194.56-194.624 0-107.456 87.104-194.56 194.56-194.56 107.584 0 194.624 87.104 194.624 194.56 0 33.344-8.384 64.64-23.040 92.032 42.816 26.048 96.256 19.904 138.176 7.616-17.344-29.12-27.456-63.168-27.456-99.648 0-107.456 87.104-194.56 194.624-194.56s194.624 87.104 194.624 194.56c0.064 107.584-87.104 194.624-194.56 194.624zM273.472 73.664c-66.752 0-120.96 54.080-120.96 120.896 0 66.88 54.208 121.088 120.96 121.088 66.88 0 121.024-54.208 121.024-121.088 0-66.816-54.144-120.896-121.024-120.896zM750.464 73.664c-66.88 0-120.96 54.080-120.96 120.896 0 27.712 9.344 53.12 25.024 73.536l3.776 4.8c22.272 26.048 55.232 42.688 92.16 42.688 66.816 0 121.024-54.208 121.024-121.088-0.064-66.752-54.208-120.832-121.024-120.832z" />
<glyph unicode="&#xe959;" glyph-name="截屏" d="M762.973 692.038c22.295 54.691 28.951 107.241-8.937 140.195l-241.524-321.722-28.439-38.493c0 0-46.313-67.025-62.417-98.304-16.198-31.279-36.771-52.829-50.129-77.359-11.729-21.551-17.455-25.553-23.971-19.409-0.838 1.024-1.676 2.001-2.653 3.025-0.047 0.047-0.093 0.093-0.14 0.186-1.908 2.467-4.608 5.12-7.773 7.494-15.686 13.545-36.678 28.812-57.809 28.812-51.759 0-103.843-68.329-103.843-127.535 0-59.252 57.949-121.809 109.661-121.809 42.403 0 94.115 46.732 105.705 90.857l-0.047-0.047c0 0 41.286 63.674 73.635 113.943 32.303 50.223 48.175 77.871 48.175 77.871l53.574 53.574c0.047-0.047 174.545 233.984 196.934 288.721v0zM285.044 135.215c-25.833 0-30.767 24.017-30.767 53.667 0 29.556 4.934 41.937 30.767 41.937 25.786 0 35.142-12.381 35.142-41.937-0.047-29.649-9.356-53.667-35.142-53.667v0zM512.977 417.839c-14.755 0-22.388 6.237-22.388 21.039 0 14.755 6.144 23.831 20.945 23.831 14.755 0 23.924-9.076 23.924-23.831 0-14.801-7.68-21.039-22.481-21.039v0zM431.337 441.437c15.453 23.599 29.649 44.265 30.673 45.754l0.233 0.372 0.279 0.326 28.486 38.633v0.047l0.093 0.093 4.934 6.516-224.489 299.055c-37.935-32.954-31.185-85.504-8.89-140.195 16.663-40.913 118.412-181.993 168.681-250.601v0zM740.538 314.973c-48.78-2.932-31.884-15.267-47.569-28.812-3.212-2.42-5.911-5.027-7.82-7.494-0.047-0.093-0.093-0.14-0.233-0.233-0.884-0.977-1.676-1.955-2.56-2.979-6.47-6.097-10.799-0.698-22.528 20.852-13.312 24.576-39.75 46.127-55.855 77.405-2.979 5.725-6.935 12.66-11.497 20.154-2.188-2.839-3.77-5.073-4.934-6.609l-1.117-1.536-1.396-1.35-56.739-59.718c17.455-11.497 30.953-37.935 48.966-65.862 32.349-50.269 64.884-100.864 64.884-100.864v0.047c11.59-44.125 38.772-90.764 98.397-93.789 81.036-4.096 108.684 65.443 108.684 124.742 0 59.159-20.48 126.045-108.684 126.045v0zM740.538 135.215c-25.74 0-32.163 24.017-32.163 53.667 0 29.556 6.423 41.937 32.163 41.937 25.879 0 33.699-24.017 32.256-41.937-2.42-29.556-6.377-53.667-32.256-53.667v0z" />
<glyph unicode="&#xe964;" glyph-name="文件夹" d="M974.498 638.638c-8.572 11.17-21.563 17.576-35.643 17.576h-91.813v40.022c0 26.010-21.162 47.171-47.172 47.171h-433.166c-2.186 0-4.242 0.851-5.787 2.397l-58.488 58.488c-8.91 8.91-20.756 13.818-33.357 13.818h-181.668c-26.010 0-47.171-21.162-47.171-47.172v-645.876c0-26.010 21.161-47.172 47.171-47.172v0.333c1.799-0.216 3.624-0.333 5.468-0.333h715.098c20.298 0 38.143 13.693 43.396 33.298l130.885 488.47c3.644 13.603 0.818 27.809-7.754 38.981zM87.405 779.122h181.669c2.186 0 4.242-0.851 5.787-2.398l58.489-58.49c8.91-8.909 20.756-13.815 33.355-13.815h433.166c4.513 0 8.184-3.672 8.184-8.184v-40.022h-584.298c-20.297 0-38.143-13.693-43.396-33.299l-101.139-377.46v525.483c0 4.513 3.672 8.184 8.184 8.184zM944.592 609.75l-130.886-488.47c-0.694-2.592-3.053-4.402-5.736-4.402h-715.098c-2.548 0-4.046 1.456-4.711 2.324-0.666 0.869-1.684 2.691-1.024 5.153l130.885 488.469c0.695 2.592 3.054 4.402 5.737 4.402h715.098c2.548 0 4.045-1.455 4.711-2.324 0.665-0.868 1.684-2.691 1.024-5.152z" />
</font>
</defs>
</svg>
